<svg width="138" height="45" viewBox="0 0 138 45" fill="none" xmlns="http://www.w3.org/2000/svg">
<circle cx="22.5546" cy="22.25" r="22.25" fill="#E3FFF0"/>
<path d="M22.5546 38.9148L8.9574 31.3608V14.7419L22.5546 23.3032V38.9148Z" fill="#329A5F"/>
<path d="M22.5546 6.18066L8.9574 14.7419L22.5546 23.3031L36.1518 14.7419L22.5546 6.18066Z" fill="#B2D9C4"/>
<path d="M22.5546 38.9148L36.1519 31.3608V14.7419L22.5546 23.3032V38.9148Z" fill="#4CA673"/>
<path d="M60.2479 8.89773H58.4751C58.407 8.51894 58.2801 8.18561 58.0945 7.89773C57.9089 7.60985 57.6816 7.36553 57.4126 7.16477C57.1437 6.96401 56.8426 6.8125 56.5092 6.71023C56.1797 6.60795 55.8293 6.55682 55.4581 6.55682C54.7876 6.55682 54.1873 6.72538 53.657 7.0625C53.1304 7.39962 52.7138 7.89394 52.407 8.54545C52.1039 9.19697 51.9524 9.99242 51.9524 10.9318C51.9524 11.8788 52.1039 12.678 52.407 13.3295C52.7138 13.9811 53.1323 14.4735 53.6626 14.8068C54.1929 15.1402 54.7895 15.3068 55.4524 15.3068C55.8198 15.3068 56.1683 15.2576 56.4979 15.1591C56.8312 15.0568 57.1323 14.9072 57.4013 14.7102C57.6702 14.5133 57.8975 14.2727 58.0831 13.9886C58.2725 13.7008 58.4032 13.3712 58.4751 13L60.2479 13.0057C60.1532 13.5777 59.9695 14.1042 59.6967 14.5852C59.4278 15.0625 59.0812 15.4754 58.657 15.8239C58.2365 16.1686 57.7554 16.4356 57.2138 16.625C56.6721 16.8144 56.0812 16.9091 55.4411 16.9091C54.4335 16.9091 53.5357 16.6705 52.7479 16.1932C51.96 15.7121 51.3388 15.0246 50.8842 14.1307C50.4335 13.2367 50.2081 12.1705 50.2081 10.9318C50.2081 9.68939 50.4354 8.62311 50.8899 7.73295C51.3445 6.83901 51.9657 6.15341 52.7536 5.67614C53.5414 5.19508 54.4373 4.95455 55.4411 4.95455C56.0585 4.95455 56.6342 5.04356 57.1683 5.22159C57.7062 5.39583 58.1892 5.65341 58.6172 5.99432C59.0452 6.33144 59.3994 6.74432 59.6797 7.23295C59.96 7.7178 60.1494 8.27273 60.2479 8.89773ZM68.2408 13.1307V8.02273H69.9453V16.75H68.2749V15.2386H68.1839C67.9832 15.7045 67.6612 16.0928 67.218 16.4034C66.7786 16.7102 66.2313 16.8636 65.576 16.8636C65.0154 16.8636 64.5192 16.7405 64.0874 16.4943C63.6593 16.2443 63.3222 15.875 63.076 15.3864C62.8336 14.8977 62.7124 14.2936 62.7124 13.5739V8.02273H64.4112V13.3693C64.4112 13.964 64.576 14.4375 64.9055 14.7898C65.2351 15.142 65.6631 15.3182 66.1896 15.3182C66.5078 15.3182 66.8241 15.2386 67.1385 15.0795C67.4567 14.9205 67.7199 14.6799 67.9283 14.358C68.1404 14.036 68.2446 13.6269 68.2408 13.1307ZM72.728 16.75V8.02273H74.37V9.40909H74.4609C74.62 8.93939 74.9003 8.57008 75.3018 8.30114C75.7071 8.02841 76.1655 7.89205 76.6768 7.89205C76.7829 7.89205 76.9079 7.89583 77.0518 7.90341C77.1996 7.91098 77.3151 7.92045 77.3984 7.93182V9.55682C77.3303 9.53788 77.209 9.51705 77.0348 9.49432C76.8606 9.4678 76.6863 9.45455 76.5121 9.45455C76.1106 9.45455 75.7526 9.53977 75.4382 9.71023C75.1276 9.87689 74.8814 10.1098 74.6996 10.4091C74.5178 10.7045 74.4268 11.0417 74.4268 11.4205V16.75H72.728ZM79.3686 16.75V8.02273H81.0675V16.75H79.3686ZM80.2266 6.67614C79.9311 6.67614 79.6773 6.57765 79.4652 6.38068C79.2569 6.17992 79.1527 5.94129 79.1527 5.66477C79.1527 5.38447 79.2569 5.14583 79.4652 4.94886C79.6773 4.74811 79.9311 4.64773 80.2266 4.64773C80.522 4.64773 80.7739 4.74811 80.9822 4.94886C81.1944 5.14583 81.3004 5.38447 81.3004 5.66477C81.3004 5.94129 81.1944 6.17992 80.9822 6.38068C80.7739 6.57765 80.522 6.67614 80.2266 6.67614ZM89.3814 13.1307V8.02273H91.0859V16.75H89.4155V15.2386H89.3246C89.1238 15.7045 88.8018 16.0928 88.3587 16.4034C87.9193 16.7102 87.3719 16.8636 86.7166 16.8636C86.156 16.8636 85.6598 16.7405 85.228 16.4943C84.8 16.2443 84.4628 15.875 84.2166 15.3864C83.9742 14.8977 83.853 14.2936 83.853 13.5739V8.02273H85.5518V13.3693C85.5518 13.964 85.7166 14.4375 86.0462 14.7898C86.3757 15.142 86.8037 15.3182 87.3303 15.3182C87.6484 15.3182 87.9647 15.2386 88.2791 15.0795C88.5973 14.9205 88.8606 14.6799 89.0689 14.358C89.281 14.036 89.3852 13.6269 89.3814 13.1307ZM93.8686 16.75V8.02273H95.4993V9.44318H95.6072C95.7891 8.96212 96.0864 8.58712 96.4993 8.31818C96.9122 8.04545 97.4065 7.90909 97.9822 7.90909C98.5656 7.90909 99.0542 8.04545 99.4482 8.31818C99.8459 8.59091 100.139 8.96591 100.329 9.44318H100.42C100.628 8.97727 100.96 8.60606 101.414 8.32955C101.869 8.04924 102.41 7.90909 103.039 7.90909C103.831 7.90909 104.477 8.1572 104.977 8.65341C105.48 9.14962 105.732 9.89773 105.732 10.8977V16.75H104.033V11.0568C104.033 10.4659 103.872 10.0379 103.55 9.77273C103.228 9.50758 102.844 9.375 102.397 9.375C101.844 9.375 101.414 9.54545 101.107 9.88636C100.8 10.2235 100.647 10.6572 100.647 11.1875V16.75H98.9538V10.9489C98.9538 10.4754 98.8061 10.0947 98.5107 9.80682C98.2152 9.51894 97.8307 9.375 97.3572 9.375C97.0353 9.375 96.7379 9.46023 96.4652 9.63068C96.1963 9.79735 95.9785 10.0303 95.8118 10.3295C95.6489 10.6288 95.5675 10.9754 95.5675 11.3693V16.75H93.8686ZM109.629 16.858C109.318 16.858 109.051 16.7481 108.827 16.5284C108.604 16.3049 108.492 16.036 108.492 15.7216C108.492 15.411 108.604 15.1458 108.827 14.9261C109.051 14.7027 109.318 14.5909 109.629 14.5909C109.939 14.5909 110.206 14.7027 110.43 14.9261C110.653 15.1458 110.765 15.411 110.765 15.7216C110.765 15.9299 110.712 16.1212 110.606 16.2955C110.504 16.4659 110.367 16.6023 110.197 16.7045C110.026 16.8068 109.837 16.858 109.629 16.858ZM115.239 5.11364V16.75H113.54V5.11364H115.239ZM118.025 16.75V8.02273H119.724V16.75H118.025ZM118.883 6.67614C118.587 6.67614 118.334 6.57765 118.121 6.38068C117.913 6.17992 117.809 5.94129 117.809 5.66477C117.809 5.38447 117.913 5.14583 118.121 4.94886C118.334 4.74811 118.587 4.64773 118.883 4.64773C119.178 4.64773 119.43 4.74811 119.638 4.94886C119.851 5.14583 119.957 5.38447 119.957 5.66477C119.957 5.94129 119.851 6.17992 119.638 6.38068C119.43 6.57765 119.178 6.67614 118.883 6.67614ZM126.663 8.02273V9.38636H121.731V8.02273H126.663ZM123.083 16.75V7.01136C123.083 6.46591 123.202 6.01326 123.441 5.65341C123.68 5.28977 123.996 5.01894 124.39 4.84091C124.784 4.65909 125.212 4.56818 125.674 4.56818C126.015 4.56818 126.307 4.59659 126.549 4.65341C126.791 4.70644 126.971 4.75568 127.089 4.80114L126.691 6.17614C126.612 6.15341 126.509 6.12689 126.384 6.09659C126.259 6.0625 126.108 6.04545 125.93 6.04545C125.517 6.04545 125.221 6.14773 125.043 6.35227C124.869 6.55682 124.782 6.85227 124.782 7.23864V16.75H123.083ZM132.333 16.9261C131.473 16.9261 130.733 16.7424 130.112 16.375C129.494 16.0038 129.017 15.483 128.68 14.8125C128.346 14.1383 128.18 13.3485 128.18 12.4432C128.18 11.5492 128.346 10.7614 128.68 10.0795C129.017 9.39773 129.487 8.86553 130.089 8.48295C130.695 8.10038 131.403 7.90909 132.214 7.90909C132.706 7.90909 133.183 7.99053 133.646 8.15341C134.108 8.31629 134.522 8.57197 134.89 8.92045C135.257 9.26894 135.547 9.72159 135.759 10.2784C135.971 10.8314 136.077 11.5038 136.077 12.2955V12.8977H129.14V11.625H134.413C134.413 11.178 134.322 10.7822 134.14 10.4375C133.958 10.089 133.702 9.81439 133.373 9.61364C133.047 9.41288 132.665 9.3125 132.225 9.3125C131.748 9.3125 131.331 9.42992 130.975 9.66477C130.623 9.89583 130.35 10.1989 130.157 10.5739C129.968 10.9451 129.873 11.3485 129.873 11.7841V12.7784C129.873 13.3617 129.975 13.858 130.18 14.267C130.388 14.6761 130.678 14.9886 131.049 15.2045C131.42 15.4167 131.854 15.5227 132.35 15.5227C132.672 15.5227 132.966 15.4773 133.231 15.3864C133.496 15.2917 133.725 15.1515 133.918 14.9659C134.112 14.7803 134.259 14.5511 134.362 14.2784L135.969 14.5682C135.841 15.0417 135.61 15.4564 135.276 15.8125C134.947 16.1648 134.532 16.4394 134.032 16.6364C133.536 16.8295 132.969 16.9261 132.333 16.9261Z" fill="white"/>
<path d="M49.7202 30.75V24.9318H50.4247V27.5227H53.527V24.9318H54.2315V30.75H53.527V28.1477H50.4247V30.75H49.7202ZM56.3466 24.9318V30.75H55.642V24.9318H56.3466ZM61.7365 26.75C61.674 26.5587 61.5916 26.3873 61.4893 26.2358C61.389 26.0824 61.2687 25.9517 61.1286 25.8438C60.9903 25.7358 60.8331 25.6534 60.657 25.5966C60.4808 25.5398 60.2876 25.5114 60.0774 25.5114C59.7327 25.5114 59.4193 25.6004 59.1371 25.7784C58.8549 25.9564 58.6304 26.2188 58.4638 26.5653C58.2971 26.9119 58.2138 27.3371 58.2138 27.8409C58.2138 28.3447 58.2981 28.7699 58.4666 29.1165C58.6352 29.4631 58.8634 29.7254 59.1513 29.9034C59.4392 30.0814 59.763 30.1705 60.1229 30.1705C60.4562 30.1705 60.7498 30.0994 61.0036 29.9574C61.2592 29.8134 61.4581 29.6108 61.6001 29.3494C61.7441 29.0862 61.8161 28.7765 61.8161 28.4205L62.032 28.4659H60.282V27.8409H62.4979V28.4659C62.4979 28.9451 62.3956 29.3617 62.1911 29.7159C61.9884 30.0701 61.7081 30.3447 61.3501 30.5398C60.9941 30.733 60.585 30.8295 60.1229 30.8295C59.6077 30.8295 59.1551 30.7083 58.7649 30.4659C58.3767 30.2235 58.0736 29.8788 57.8558 29.4318C57.6399 28.9848 57.532 28.4545 57.532 27.8409C57.532 27.3807 57.5935 26.9669 57.7166 26.5994C57.8416 26.2301 58.0178 25.9157 58.245 25.6562C58.4723 25.3968 58.7412 25.1979 59.0518 25.0597C59.3625 24.9214 59.7043 24.8523 60.0774 24.8523C60.3842 24.8523 60.6702 24.8987 60.9354 24.9915C61.2024 25.0824 61.4401 25.2121 61.6484 25.3807C61.8587 25.5473 62.0339 25.7472 62.174 25.9801C62.3142 26.2112 62.4107 26.4678 62.4638 26.75H61.7365ZM63.7045 30.75V24.9318H64.4091V27.5227H67.5114V24.9318H68.2159V30.75H67.5114V28.1477H64.4091V30.75H63.7045ZM69.6264 30.75V24.9318H73.1378V25.5568H70.331V27.5227H72.956V28.1477H70.331V30.125H73.1832V30.75H69.6264ZM74.4077 30.75V24.9318H76.3736C76.8281 24.9318 77.2012 25.0095 77.4929 25.1648C77.7846 25.3182 78.0005 25.5294 78.1406 25.7983C78.2808 26.0672 78.3509 26.3731 78.3509 26.7159C78.3509 27.0587 78.2808 27.3627 78.1406 27.6278C78.0005 27.893 77.7855 28.1013 77.4957 28.2528C77.206 28.4025 76.8357 28.4773 76.3849 28.4773H74.794V27.8409H76.3622C76.6728 27.8409 76.9228 27.7955 77.1122 27.7045C77.3035 27.6136 77.4418 27.4848 77.527 27.3182C77.6141 27.1496 77.6577 26.9489 77.6577 26.7159C77.6577 26.483 77.6141 26.2794 77.527 26.1051C77.4399 25.9309 77.3007 25.7964 77.1094 25.7017C76.9181 25.6051 76.6652 25.5568 76.3509 25.5568H75.1122V30.75H74.4077ZM77.1463 28.1364L78.5781 30.75H77.7599L76.3509 28.1364H77.1463ZM82.4794 24.9318V30.75H81.7749V24.9318H82.4794ZM88.5057 24.9318V30.75H87.8239L84.6534 26.1818H84.5966V30.75H83.892V24.9318H84.5739L87.7557 29.5114H87.8125V24.9318H88.5057ZM89.5973 25.5568V24.9318H93.9609V25.5568H92.1314V30.75H91.4268V25.5568H89.5973ZM95.0483 30.75V24.9318H98.5597V25.5568H95.7528V27.5227H98.3778V28.1477H95.7528V30.125H98.6051V30.75H95.0483ZM99.8295 30.75V24.9318H100.534V30.125H103.239V30.75H99.8295ZM104.33 30.75V24.9318H105.034V30.125H107.739V30.75H104.33ZM109.534 24.9318V30.75H108.83V24.9318H109.534ZM114.924 26.75C114.862 26.5587 114.779 26.3873 114.677 26.2358C114.576 26.0824 114.456 25.9517 114.316 25.8438C114.178 25.7358 114.021 25.6534 113.844 25.5966C113.668 25.5398 113.475 25.5114 113.265 25.5114C112.92 25.5114 112.607 25.6004 112.325 25.7784C112.042 25.9564 111.818 26.2188 111.651 26.5653C111.485 26.9119 111.401 27.3371 111.401 27.8409C111.401 28.3447 111.486 28.7699 111.654 29.1165C111.823 29.4631 112.051 29.7254 112.339 29.9034C112.627 30.0814 112.951 30.1705 113.31 30.1705C113.644 30.1705 113.937 30.0994 114.191 29.9574C114.447 29.8134 114.646 29.6108 114.788 29.3494C114.932 29.0862 115.004 28.7765 115.004 28.4205L115.219 28.4659H113.469V27.8409H115.685V28.4659C115.685 28.9451 115.583 29.3617 115.379 29.7159C115.176 30.0701 114.896 30.3447 114.538 30.5398C114.182 30.733 113.772 30.8295 113.31 30.8295C112.795 30.8295 112.343 30.7083 111.952 30.4659C111.564 30.2235 111.261 29.8788 111.043 29.4318C110.827 28.9848 110.719 28.4545 110.719 27.8409C110.719 27.3807 110.781 26.9669 110.904 26.5994C111.029 26.2301 111.205 25.9157 111.433 25.6562C111.66 25.3968 111.929 25.1979 112.239 25.0597C112.55 24.9214 112.892 24.8523 113.265 24.8523C113.572 24.8523 113.858 24.8987 114.123 24.9915C114.39 25.0824 114.628 25.2121 114.836 25.3807C115.046 25.5473 115.221 25.7472 115.362 25.9801C115.502 26.2112 115.598 26.4678 115.651 26.75H114.924ZM116.892 30.75V24.9318H120.403V25.5568H117.597V27.5227H120.222V28.1477H117.597V30.125H120.449V30.75H116.892ZM126.287 24.9318V30.75H125.605L122.435 26.1818H122.378V30.75H121.673V24.9318H122.355L125.537 29.5114H125.594V24.9318H126.287ZM132.379 26.75H131.674C131.632 26.5473 131.559 26.3693 131.455 26.2159C131.353 26.0625 131.228 25.9337 131.08 25.8295C130.934 25.7235 130.772 25.6439 130.594 25.5909C130.416 25.5379 130.231 25.5114 130.038 25.5114C129.685 25.5114 129.366 25.6004 129.08 25.7784C128.796 25.9564 128.57 26.2188 128.401 26.5653C128.235 26.9119 128.151 27.3371 128.151 27.8409C128.151 28.3447 128.235 28.7699 128.401 29.1165C128.57 29.4631 128.796 29.7254 129.08 29.9034C129.366 30.0814 129.685 30.1705 130.038 30.1705C130.231 30.1705 130.416 30.1439 130.594 30.0909C130.772 30.0379 130.934 29.9593 131.08 29.8551C131.228 29.7491 131.353 29.6193 131.455 29.4659C131.559 29.3106 131.632 29.1326 131.674 28.9318H132.379C132.326 29.2292 132.229 29.4953 132.089 29.7301C131.949 29.965 131.774 30.1648 131.566 30.3295C131.358 30.4924 131.124 30.6165 130.864 30.7017C130.607 30.7869 130.331 30.8295 130.038 30.8295C129.541 30.8295 129.1 30.7083 128.714 30.4659C128.327 30.2235 128.023 29.8788 127.802 29.4318C127.58 28.9848 127.469 28.4545 127.469 27.8409C127.469 27.2273 127.58 26.697 127.802 26.25C128.023 25.803 128.327 25.4583 128.714 25.2159C129.1 24.9735 129.541 24.8523 130.038 24.8523C130.331 24.8523 130.607 24.8949 130.864 24.9801C131.124 25.0653 131.358 25.1903 131.566 25.3551C131.774 25.518 131.949 25.7169 132.089 25.9517C132.229 26.1847 132.326 26.4508 132.379 26.75ZM133.517 30.75V24.9318H137.028V25.5568H134.222V27.5227H136.847V28.1477H134.222V30.125H137.074V30.75H133.517ZM64.9567 36.3864C64.9226 36.0985 64.7843 35.875 64.5419 35.7159C64.2995 35.5568 64.0021 35.4773 63.6499 35.4773C63.3923 35.4773 63.1669 35.5189 62.9737 35.6023C62.7824 35.6856 62.6328 35.8002 62.5249 35.946C62.4188 36.0919 62.3658 36.2576 62.3658 36.4432C62.3658 36.5985 62.4027 36.732 62.4766 36.8438C62.5523 36.9536 62.6489 37.0455 62.7663 37.1193C62.8838 37.1913 63.0069 37.2509 63.1357 37.2983C63.2644 37.3437 63.3828 37.3807 63.4908 37.4091L64.0817 37.5682C64.2332 37.608 64.4018 37.6629 64.5874 37.733C64.7749 37.803 64.9538 37.8987 65.1243 38.0199C65.2966 38.1392 65.4387 38.2926 65.5504 38.4801C65.6622 38.6676 65.718 38.8977 65.718 39.1705C65.718 39.4848 65.6357 39.7689 65.4709 40.0227C65.308 40.2765 65.0694 40.4782 64.755 40.6278C64.4425 40.7775 64.0627 40.8523 63.6158 40.8523C63.1991 40.8523 62.8383 40.785 62.5334 40.6506C62.2304 40.5161 61.9917 40.3286 61.8175 40.0881C61.6451 39.8475 61.5476 39.5682 61.5249 39.25H62.2521C62.2711 39.4697 62.3449 39.6515 62.4737 39.7955C62.6044 39.9375 62.7692 40.0436 62.968 40.1136C63.1688 40.1818 63.3847 40.2159 63.6158 40.2159C63.8847 40.2159 64.1262 40.1723 64.3402 40.0852C64.5542 39.9962 64.7237 39.8731 64.8487 39.7159C64.9737 39.5568 65.0362 39.3712 65.0362 39.1591C65.0362 38.9659 64.9822 38.8087 64.8743 38.6875C64.7663 38.5663 64.6243 38.4678 64.4482 38.392C64.272 38.3163 64.0817 38.25 63.8771 38.1932L63.1612 37.9886C62.7067 37.858 62.3468 37.6714 62.0817 37.429C61.8165 37.1866 61.6839 36.8693 61.6839 36.4773C61.6839 36.1515 61.772 35.8674 61.9482 35.625C62.1262 35.3807 62.3648 35.1913 62.6641 35.0568C62.9652 34.9205 63.3014 34.8523 63.6726 34.8523C64.0476 34.8523 64.3809 34.9195 64.6726 35.054C64.9643 35.1866 65.1953 35.3684 65.3658 35.5994C65.5381 35.8305 65.629 36.0928 65.6385 36.3864H64.9567ZM67.1151 40.75H66.3764L68.5128 34.9318H69.2401L71.3764 40.75H70.6378L68.8991 35.8523H68.8537L67.1151 40.75ZM67.3878 38.4773H70.3651V39.1023H67.3878V38.4773ZM72.2827 40.75V34.9318H75.7713V35.5568H72.9872V37.5227H75.5099V38.1477H72.9872V40.75H72.2827ZM76.978 40.75V34.9318H80.4893V35.5568H77.6825V37.5227H80.3075V38.1477H77.6825V40.125H80.5348V40.75H76.978ZM81.7592 40.75V34.9318H83.7251C84.1797 34.9318 84.5528 35.0095 84.8445 35.1648C85.1361 35.3182 85.352 35.5294 85.4922 35.7983C85.6323 36.0672 85.7024 36.3731 85.7024 36.7159C85.7024 37.0587 85.6323 37.3627 85.4922 37.6278C85.352 37.893 85.1371 38.1013 84.8473 38.2528C84.5575 38.4025 84.1873 38.4773 83.7365 38.4773H82.1456V37.8409H83.7138C84.0244 37.8409 84.2744 37.7955 84.4638 37.7045C84.6551 37.6136 84.7933 37.4848 84.8786 37.3182C84.9657 37.1496 85.0092 36.9489 85.0092 36.7159C85.0092 36.483 84.9657 36.2794 84.8786 36.1051C84.7914 35.9309 84.6522 35.7964 84.4609 35.7017C84.2696 35.6051 84.0168 35.5568 83.7024 35.5568H82.4638V40.75H81.7592ZM84.4979 38.1364L85.9297 40.75H85.1115L83.7024 38.1364H84.4979ZM92.3082 36.3864C92.2741 36.0985 92.1359 35.875 91.8935 35.7159C91.651 35.5568 91.3537 35.4773 91.0014 35.4773C90.7438 35.4773 90.5185 35.5189 90.3253 35.6023C90.134 35.6856 89.9844 35.8002 89.8764 35.946C89.7704 36.0919 89.7173 36.2576 89.7173 36.4432C89.7173 36.5985 89.7543 36.732 89.8281 36.8438C89.9039 36.9536 90.0005 37.0455 90.1179 37.1193C90.2353 37.1913 90.3584 37.2509 90.4872 37.2983C90.616 37.3437 90.7344 37.3807 90.8423 37.4091L91.4332 37.5682C91.5848 37.608 91.7533 37.6629 91.9389 37.733C92.1264 37.803 92.3054 37.8987 92.4759 38.0199C92.6482 38.1392 92.7902 38.2926 92.902 38.4801C93.0137 38.6676 93.0696 38.8977 93.0696 39.1705C93.0696 39.4848 92.9872 39.7689 92.8224 40.0227C92.6596 40.2765 92.4209 40.4782 92.1065 40.6278C91.794 40.7775 91.4143 40.8523 90.9673 40.8523C90.5507 40.8523 90.1899 40.785 89.8849 40.6506C89.5819 40.5161 89.3433 40.3286 89.169 40.0881C88.9967 39.8475 88.8991 39.5682 88.8764 39.25H89.6037C89.6226 39.4697 89.6965 39.6515 89.8253 39.7955C89.956 39.9375 90.1207 40.0436 90.3196 40.1136C90.5204 40.1818 90.7363 40.2159 90.9673 40.2159C91.2363 40.2159 91.4777 40.1723 91.6918 40.0852C91.9058 39.9962 92.0753 39.8731 92.2003 39.7159C92.3253 39.5568 92.3878 39.3712 92.3878 39.1591C92.3878 38.9659 92.3338 38.8087 92.2259 38.6875C92.1179 38.5663 91.9759 38.4678 91.7997 38.392C91.6236 38.3163 91.4332 38.25 91.2287 38.1932L90.5128 37.9886C90.0582 37.858 89.6984 37.6714 89.4332 37.429C89.1681 37.1866 89.0355 36.8693 89.0355 36.4773C89.0355 36.1515 89.1236 35.8674 89.2997 35.625C89.4777 35.3807 89.7164 35.1913 90.0156 35.0568C90.3168 34.9205 90.6529 34.8523 91.0241 34.8523C91.3991 34.8523 91.7325 34.9195 92.0241 35.054C92.3158 35.1866 92.5469 35.3684 92.7173 35.5994C92.8897 35.8305 92.9806 36.0928 92.9901 36.3864H92.3082ZM98.0462 34.9318H98.7507V38.7841C98.7507 39.1818 98.657 39.5369 98.4695 39.8494C98.2839 40.16 98.0215 40.4053 97.6825 40.5852C97.3435 40.7633 96.9458 40.8523 96.4893 40.8523C96.0329 40.8523 95.6352 40.7633 95.2962 40.5852C94.9571 40.4053 94.6939 40.16 94.5064 39.8494C94.3208 39.5369 94.228 39.1818 94.228 38.7841V34.9318H94.9325V38.7273C94.9325 39.0114 94.995 39.2642 95.12 39.4858C95.245 39.7055 95.4231 39.8788 95.6541 40.0057C95.8871 40.1307 96.1655 40.1932 96.4893 40.1932C96.8132 40.1932 97.0916 40.1307 97.3246 40.0057C97.5575 39.8788 97.7356 39.7055 97.8587 39.4858C97.9837 39.2642 98.0462 39.0114 98.0462 38.7273V34.9318ZM100.158 40.75V34.9318H102.124C102.578 34.9318 102.951 35.0095 103.243 35.1648C103.535 35.3182 103.75 35.5294 103.891 35.7983C104.031 36.0672 104.101 36.3731 104.101 36.7159C104.101 37.0587 104.031 37.3627 103.891 37.6278C103.75 37.893 103.536 38.1013 103.246 38.2528C102.956 38.4025 102.586 38.4773 102.135 38.4773H100.544V37.8409H102.112C102.423 37.8409 102.673 37.7955 102.862 37.7045C103.054 37.6136 103.192 37.4848 103.277 37.3182C103.364 37.1496 103.408 36.9489 103.408 36.7159C103.408 36.483 103.364 36.2794 103.277 36.1051C103.19 35.9309 103.051 35.7964 102.859 35.7017C102.668 35.6051 102.415 35.5568 102.101 35.5568H100.862V40.75H100.158ZM102.896 38.1364L104.328 40.75H103.51L102.101 38.1364H102.896ZM109.252 36.75C109.19 36.5587 109.107 36.3873 109.005 36.2358C108.905 36.0824 108.784 35.9517 108.644 35.8438C108.506 35.7358 108.349 35.6534 108.173 35.5966C107.996 35.5398 107.803 35.5114 107.593 35.5114C107.248 35.5114 106.935 35.6004 106.653 35.7784C106.371 35.9564 106.146 36.2188 105.979 36.5653C105.813 36.9119 105.729 37.3371 105.729 37.8409C105.729 38.3447 105.814 38.7699 105.982 39.1165C106.151 39.4631 106.379 39.7254 106.667 39.9034C106.955 40.0814 107.279 40.1705 107.638 40.1705C107.972 40.1705 108.265 40.0994 108.519 39.9574C108.775 39.8134 108.974 39.6108 109.116 39.3494C109.26 39.0862 109.332 38.7765 109.332 38.4205L109.548 38.4659H107.798V37.8409H110.013V38.4659C110.013 38.9451 109.911 39.3617 109.707 39.7159C109.504 40.0701 109.224 40.3447 108.866 40.5398C108.51 40.733 108.101 40.8295 107.638 40.8295C107.123 40.8295 106.671 40.7083 106.281 40.4659C105.892 40.2235 105.589 39.8788 105.371 39.4318C105.156 38.9848 105.048 38.4545 105.048 37.8409C105.048 37.3807 105.109 36.9669 105.232 36.5994C105.357 36.2301 105.533 35.9157 105.761 35.6562C105.988 35.3968 106.257 35.1979 106.567 35.0597C106.878 34.9214 107.22 34.8523 107.593 34.8523C107.9 34.8523 108.186 34.8987 108.451 34.9915C108.718 35.0824 108.956 35.2121 109.164 35.3807C109.374 35.5473 109.549 35.7472 109.69 35.9801C109.83 36.2112 109.926 36.4678 109.979 36.75H109.252ZM111.22 40.75V34.9318H114.732V35.5568H111.925V37.5227H114.55V38.1477H111.925V40.125H114.777V40.75H111.22ZM116.001 40.75V34.9318H117.967C118.422 34.9318 118.795 35.0095 119.087 35.1648C119.378 35.3182 119.594 35.5294 119.734 35.7983C119.875 36.0672 119.945 36.3731 119.945 36.7159C119.945 37.0587 119.875 37.3627 119.734 37.6278C119.594 37.893 119.379 38.1013 119.089 38.2528C118.8 38.4025 118.429 38.4773 117.979 38.4773H116.388V37.8409H117.956C118.267 37.8409 118.517 37.7955 118.706 37.7045C118.897 37.6136 119.036 37.4848 119.121 37.3182C119.208 37.1496 119.251 36.9489 119.251 36.7159C119.251 36.483 119.208 36.2794 119.121 36.1051C119.034 35.9309 118.894 35.7964 118.703 35.7017C118.512 35.6051 118.259 35.5568 117.945 35.5568H116.706V40.75H116.001ZM118.74 38.1364L120.172 40.75H119.354L117.945 38.1364H118.74ZM120.423 34.9318H121.23L122.844 37.6477H122.912L124.526 34.9318H125.332L123.23 38.3523V40.75H122.526V38.3523L120.423 34.9318Z" fill="white"/>
</svg>
